<svg height="316.227766" viewBox="0 0 100 100" width="316.227766" xmlns="http://www.w3.org/2000/svg" xmlns:xlink="http://www.w3.org/1999/xlink"><radialGradient id="a" cx="172.95956" cy="325.04248" gradientTransform="matrix(-.7686941 -1.6129715 1.7399724 -.8292217 -242.92022 877.24061)" gradientUnits="userSpaceOnUse" r="49.088585"><stop offset="0" stop-color="#fc0"/><stop offset=".81164956" stop-color="#ec6800"/><stop offset=".88873672" stop-color="#ea4902"/><stop offset=".91239935" stop-color="#e73900"/><stop offset="1" stop-color="#f00"/></radialGradient><g transform="translate(-120.03333 -241.19115)"><path d="m219.03632 291.16805c0 27.0624-21.96369 49.02609-49.02608 49.02609-27.0624 0-49.02609-21.96369-49.02609-49.02609s21.96369-49.02608 49.02609-49.02608c11.29731 0 19.39727 4.04998 19.39727 4.04998s4.68945 10.23153 4.68945 10.23153-9.3789 8.73943-9.3789 8.73943 12.78941-1.4921 12.78941-1.4921 5.32892 11.72363 5.32892 11.72363 2.55789-12.78941 2.55789-12.78941 4.04998-.42632 4.04998-.42632 9.59206 11.29732 9.59206 28.98934z" fill="url(#a)"/><g fill="#fff" fill-rule="evenodd"><path d="m140.59459 306.72851h6.60786v-12.3631h8.73944v-5.32892h-8.73944v-6.39471h13.00257v-5.54208h-19.61043z"/><path d="m130.1499 302.67853c0-.85263.63947-1.27894 1.4921-1.27894v-2.55788c-1.70526 0-3.62367 1.06578-3.62367 3.83682s1.91841 4.04998 3.83683 4.04998h4.26313c1.91842 0 3.83683-1.06578 3.83683-4.04998 0-1.91841-1.27894-2.55788-1.27894-2.55788h1.06578v-1.27894h-5.96839v3.83682h1.91841v-1.27894h.63947c.85263 0 1.4921.42631 1.4921 1.27894s-.63947 1.4921-1.4921 1.4921h-4.68945c-.85263 0-1.4921-.63947-1.4921-1.4921z"/><path d="m174.27338 294.36541c0-5.32892-1.4921-9.59206-8.1908-9.58976-7.36965-.0023-8.64859 4.26084-8.64859 9.58976v2.9842c0 5.32892 1.27894 9.59206 8.64859 9.56359 6.6987.02847 8.1908-4.23467 8.1908-9.56359zm-5.75524-.42631c0-3.28926-.47099-4.8896-2.59198-4.88818-2.33344-.00142-2.73694 1.59892-2.73694 4.88818v3.83682c0 3.28926.4035 4.95688 2.73694 4.93931 2.12099.01757 2.59198-1.65005 2.59198-4.93931z"/><path d="m192.05077 294.36541c0-5.32892-1.4921-9.59206-8.1908-9.58976-7.36965-.0023-8.64859 4.26084-8.64859 9.58976v2.9842c0 5.32892 1.27894 9.59206 8.64859 9.56359 6.6987.02847 8.1908-4.23467 8.1908-9.56359zm-5.75523-.42631c0-3.28926-.471-4.8896-2.59199-4.88818-2.33344-.00142-2.73694 1.59892-2.73694 4.88818v3.83682c0 3.28926.4035 4.95688 2.73694 4.93931 2.12099.01757 2.59199-1.65005 2.59199-4.93931z"/><path d="m136.05583 297.93732c2.06635 0 3.71944-.56046 3.71855-3.07662.00089-2.76818-1.6522-3.24858-3.71855-3.24858h-1.15715c-2.06636 0-3.71944.4804-3.7084 3.24858-.01104 2.51616 1.64204 3.07662 3.7084 3.07662zm.16531-2.16178c1.27545 0 1.896-.17691 1.89545-.97359.00055-.87649-.62-1.02805-1.89545-1.02805h-1.48777c-1.27545 0-1.92209.15156-1.91528 1.02805-.00681.79668.63983.97359 1.91528.97359z"/><path d="m136.05583 290.77195c2.06635 0 3.71944-.56046 3.71855-3.07662.00089-2.76818-1.6522-3.24858-3.71855-3.24858h-1.15715c-2.06636 0-3.71944.4804-3.7084 3.24858-.01104 2.51616 1.64204 3.07662 3.7084 3.07662zm.16531-2.16177c1.27545 0 1.896-.17692 1.89545-.9736.00055-.87649-.62-1.02805-1.89545-1.02805h-1.48777c-1.27545 0-1.92209.15156-1.91528 1.02805-.00681.79668.63983.9736 1.91528.9736z"/><path d="m209.65743 277.0997h-5.54208v11.29732s-1.4921-3.62367-5.75524-3.62367c-5.11577 0-5.50798 4.26314-5.50798 9.59206v2.9842c0 5.32892.60537 9.59206 5.50798 9.59206 4.47629 0 5.96839-3.83683 5.96839-3.83683v3.62367h5.32893c.05251-9.44995.02015-20.17882 0-29.62881zm-5.54208 14.28151c0-.63947-1.80447-2.13264-3.41051-2.13156-1.27895 0-2.13157 1.27894-2.13157 3.41051v5.75523c0 1.91841.63947 3.53841 2.13157 3.53841 2.12099.01757 3.41051-1.62 3.41051-2.25947z"/><path d="m128.31017 277.09989v2.12822h4.34211s-1.39275.57297-1.39275 2.21006c0 1.9645 1.63854 2.11512 3.6867 2.11512h1.14697c2.04817 0 3.68671-.23247 3.68671-2.11512 0-1.71894-1.47469-2.29192-1.47469-2.29192h1.39276v-2.04636c-3.63208-.02016-7.75571-.00774-11.38781 0zm5.48909 2.12822c-.24578 0-.81968.69293-.81927 1.30966 0 .49113.49156.81855 1.31083.81855h2.21202c.73734 0 1.35998-.24557 1.35998-.81855.00675-.81448-.62264-1.30966-.86842-1.30966z"/></g></g></svg>